<svg xmlns="http://www.w3.org/2000/svg" width="720" height="380" viewBox="0 0 720 380" font-family="system-ui, sans-serif">
<title>Best free score on each list</title>
<rect width="720" height="380" fill="#fcfcfb"/>
<text x="20" y="28" font-size="16" font-weight="600" fill="#0b0b0b">Best free score on each list</text>
<text x="20" y="48" font-size="12" fill="#52514e">Pass rate (%). Each bar is the winning free way on that list. Not blended.</text>
<line x1="48" x2="700" y1="324.0" y2="324.0" stroke="#e6e5e0"/>
<text x="42" y="328.0" font-size="11" fill="#52514e" text-anchor="end">0%</text>
<line x1="48" x2="700" y1="274.8" y2="274.8" stroke="#e6e5e0"/>
<text x="42" y="278.8" font-size="11" fill="#52514e" text-anchor="end">20%</text>
<line x1="48" x2="700" y1="225.6" y2="225.6" stroke="#e6e5e0"/>
<text x="42" y="229.6" font-size="11" fill="#52514e" text-anchor="end">40%</text>
<line x1="48" x2="700" y1="176.4" y2="176.4" stroke="#e6e5e0"/>
<text x="42" y="180.4" font-size="11" fill="#52514e" text-anchor="end">60%</text>
<line x1="48" x2="700" y1="127.2" y2="127.2" stroke="#e6e5e0"/>
<text x="42" y="131.2" font-size="11" fill="#52514e" text-anchor="end">80%</text>
<line x1="48" x2="700" y1="78.0" y2="78.0" stroke="#e6e5e0"/>
<text x="42" y="82.0" font-size="11" fill="#52514e" text-anchor="end">100%</text>
<rect x="48" y="58" width="12" height="12" rx="2" fill="#7aa6e0"/>
<text x="64" y="69" font-size="12" fill="#0b0b0b">0.8B</text>
<rect x="110" y="58" width="12" height="12" rx="2" fill="#2a78d6"/>
<text x="126" y="69" font-size="12" fill="#0b0b0b">2B</text>
<rect x="158" y="58" width="12" height="12" rx="2" fill="#0b3d91"/>
<text x="174" y="69" font-size="12" fill="#0b0b0b">4B</text>
<rect x="110.7" y="273.6" width="28.0" height="50.4" rx="2" fill="#7aa6e0"><title>0.8B · Exam 234: 20.5%</title></rect>
<text x="124.7" y="269.6" font-size="10" fill="#0b0b0b" text-anchor="middle">20.5</text>
<rect x="142.7" y="201.5" width="28.0" height="122.5" rx="2" fill="#2a78d6"><title>2B · Exam 234: 49.8%</title></rect>
<text x="156.7" y="197.5" font-size="10" fill="#0b0b0b" text-anchor="middle">49.8</text>
<rect x="174.7" y="131.6" width="28.0" height="192.4" rx="2" fill="#0b3d91"><title>4B · Exam 234: 78.2%</title></rect>
<text x="188.7" y="127.6" font-size="10" fill="#0b0b0b" text-anchor="middle">78.2</text>
<text x="156.7" y="344" font-size="12" fill="#0b0b0b" text-anchor="middle">Exam 234</text>
<rect x="328.0" y="311.7" width="28.0" height="12.3" rx="2" fill="#7aa6e0"><title>0.8B · Extra 40: 5.0%</title></rect>
<text x="342.0" y="307.7" font-size="10" fill="#0b0b0b" text-anchor="middle">5</text>
<rect x="360.0" y="293.2" width="28.0" height="30.8" rx="2" fill="#2a78d6"><title>2B · Extra 40: 12.5%</title></rect>
<text x="374.0" y="289.2" font-size="10" fill="#0b0b0b" text-anchor="middle">12.5</text>
<rect x="392.0" y="210.3" width="28.0" height="113.7" rx="2" fill="#0b3d91"><title>4B · Extra 40: 46.2%</title></rect>
<text x="406.0" y="206.3" font-size="10" fill="#0b0b0b" text-anchor="middle">46.2</text>
<text x="374.0" y="344" font-size="12" fill="#0b0b0b" text-anchor="middle">Extra 40</text>
<rect x="545.3" y="300.6" width="28.0" height="23.4" rx="2" fill="#7aa6e0"><title>0.8B · More 190: 9.5%</title></rect>
<text x="559.3" y="296.6" font-size="10" fill="#0b0b0b" text-anchor="middle">9.5</text>
<rect x="577.3" y="247.5" width="28.0" height="76.5" rx="2" fill="#2a78d6"><title>2B · More 190: 31.1%</title></rect>
<text x="591.3" y="243.5" font-size="10" fill="#0b0b0b" text-anchor="middle">31.1</text>
<rect x="609.3" y="153.0" width="28.0" height="171.0" rx="2" fill="#0b3d91"><title>4B · More 190: 69.5%</title></rect>
<text x="623.3" y="149.0" font-size="10" fill="#0b0b0b" text-anchor="middle">69.5</text>
<text x="591.3" y="344" font-size="12" fill="#0b0b0b" text-anchor="middle">More 190</text>
<line x1="48" x2="700" y1="324" y2="324" stroke="#8a8984"/>
</svg>